<svg width="63" height="50" viewBox="0 0 63 50" fill="none" xmlns="http://www.w3.org/2000/svg">
<path d="M60.75 0H2.25C1.00547 0 0 1.01562 0 2.27273V47.7273C0 48.9844 1.00547 50 2.25 50H60.75C61.9945 50 63 48.9844 63 47.7273V2.27273C63 1.01562 61.9945 0 60.75 0ZM57.9375 7.86932V44.8864H5.0625V7.86932L3.12188 6.34233L5.88516 2.75568L8.89453 5.12074H54.1125L57.1219 2.75568L59.8852 6.34233L57.9375 7.86932V7.86932ZM54.1125 5.11364L31.5 22.8693L8.8875 5.11364L5.87813 2.74858L3.11484 6.33523L5.05547 7.86222L29.0742 26.7259C29.765 27.2679 30.6148 27.5621 31.4895 27.5621C32.3642 27.5621 33.2139 27.2679 33.9047 26.7259L57.9375 7.86932L59.8781 6.34233L57.1148 2.75568L54.1125 5.11364Z" fill="#FAFAFA"/>
</svg>
