<svg width="50" height="50" viewBox="0 0 50 50" fill="none" xmlns="http://www.w3.org/2000/svg">
<path fill-rule="evenodd" clip-rule="evenodd" d="M36.4558 29.9625C35.832 29.6521 32.7736 28.1563 32.2042 27.948C31.6348 27.7417 31.2204 27.6396 30.8038 28.2605C30.3893 28.8771 29.1982 30.273 28.836 30.6855C28.4718 31.1 28.1096 31.15 27.4879 30.8417C26.8662 30.5292 24.8607 29.8771 22.4848 27.7688C20.6363 26.1271 19.3866 24.1 19.0244 23.4792C18.6623 22.8605 18.9847 22.525 19.2966 22.2167C19.5771 21.9396 19.9183 21.4938 20.2302 21.1334C20.5421 20.7709 20.6447 20.5126 20.8519 20.098C21.0613 19.6855 20.9566 19.3251 20.7996 19.0146C20.6447 18.7042 19.4013 15.6563 18.8821 14.4167C18.3776 13.2105 17.8647 13.3751 17.4837 13.3542C17.1195 13.3376 16.705 13.3334 16.2905 13.3334C15.876 13.3334 15.202 13.4876 14.6326 14.1084C14.0611 14.7271 12.4555 16.2251 12.4555 19.273C12.4555 22.3188 14.6828 25.2625 14.9947 25.6771C15.3066 26.0896 19.3803 32.3438 25.6206 35.025C27.1069 35.6625 28.2645 36.0438 29.1668 36.3271C30.6572 36.8 32.0137 36.7334 33.0855 36.5729C34.2788 36.3959 36.7657 35.075 37.2848 33.6292C37.8019 32.1834 37.8019 30.9438 37.647 30.6855C37.4921 30.4271 37.0776 30.273 36.4538 29.9625H36.4558ZM25.1057 45.3854H25.0973C21.3908 45.3861 17.7525 44.3945 14.5635 42.5146L13.8099 42.0688L5.97654 44.1146L8.06781 36.5146L7.57587 35.7354C5.50373 32.4528 4.40714 28.6537 4.4128 24.7771C4.41699 13.423 13.6989 4.1855 25.114 4.1855C30.6405 4.1855 35.8362 6.33133 39.7424 10.223C41.6691 12.1325 43.1962 14.4033 44.2353 16.904C45.2745 19.4047 45.8051 22.0856 45.7964 24.7917C45.7922 36.1459 36.5103 45.3854 25.1057 45.3854ZM42.715 7.26674C40.4085 4.95617 37.6642 3.12412 34.6411 1.87675C31.618 0.629384 28.3762 -0.00849217 25.1036 8.53698e-05C11.3837 8.53698e-05 0.213523 11.1147 0.209336 24.775C0.207243 29.1417 1.35231 33.4042 3.5315 37.1604L0 50L13.1965 46.5542C16.8471 48.5336 20.938 49.5708 25.0952 49.5708H25.1057C38.8255 49.5708 49.9957 38.4563 49.9999 24.7938C50.01 21.5381 49.3714 18.3128 48.1209 15.3043C46.8705 12.2958 45.0331 9.56397 42.715 7.26674Z" fill="#FAFAFA"/>
</svg>
