<svg width="60" height="57" viewBox="0 0 60 57" fill="none" xmlns="http://www.w3.org/2000/svg">
<path fill-rule="evenodd" clip-rule="evenodd" d="M0.677892 21.1947C0.892232 20.9567 1.14686 20.7679 1.42719 20.6391C1.70752 20.5103 2.00804 20.4439 2.31155 20.4439C2.61505 20.4439 2.91558 20.5103 3.19591 20.6391C3.47624 20.7679 3.73086 20.9567 3.9452 21.1947L30.0006 50.0565L56.056 21.1947C56.4893 20.7149 57.0769 20.4453 57.6897 20.4453C58.3024 20.4453 58.89 20.7149 59.3233 21.1947C59.7566 21.6746 60 22.3254 60 23.004C60 23.6826 59.7566 24.3334 59.3233 24.8133L31.6343 55.4792C31.4199 55.7172 31.1653 55.906 30.885 56.0348C30.6046 56.1637 30.3041 56.23 30.0006 56.23C29.6971 56.23 29.3966 56.1637 29.1162 56.0348C28.8359 55.906 28.5813 55.7172 28.367 55.4792L0.677892 24.8133C0.46301 24.5759 0.292525 24.2939 0.176201 23.9834C0.0598769 23.673 0 23.3401 0 23.004C0 22.6679 0.0598769 22.335 0.176201 22.0246C0.292525 21.7141 0.46301 21.4321 0.677892 21.1947Z" fill="white"/>
<path fill-rule="evenodd" clip-rule="evenodd" d="M0.677892 0.750772C0.892232 0.512788 1.14686 0.323974 1.42719 0.195144C1.70752 0.0663143 2.00804 0 2.31155 0C2.61505 0 2.91558 0.0663143 3.19591 0.195144C3.47624 0.323974 3.73086 0.512788 3.9452 0.750772L30.0006 29.6125L56.056 0.750772C56.2705 0.513173 56.5252 0.324699 56.8055 0.196112C57.0858 0.0675239 57.3863 0.00134041 57.6897 0.00134041C57.9931 0.00134041 58.2935 0.0675239 58.5738 0.196112C58.8541 0.324699 59.1088 0.513173 59.3233 0.750772C59.5379 0.988371 59.708 1.27044 59.8241 1.58088C59.9402 1.89132 60 2.22405 60 2.56006C60 2.89608 59.9402 3.2288 59.8241 3.53924C59.708 3.84968 59.5379 4.13175 59.3233 4.36935L31.6343 35.0353C31.4199 35.2733 31.1653 35.4621 30.885 35.5909C30.6046 35.7197 30.3041 35.786 30.0006 35.786C29.6971 35.786 29.3966 35.7197 29.1162 35.5909C28.8359 35.4621 28.5813 35.2733 28.367 35.0353L0.677892 4.36935C0.46301 4.13197 0.292525 3.84997 0.176201 3.5395C0.0598769 3.22903 0 2.8962 0 2.56006C0 2.22393 0.0598769 1.89109 0.176201 1.58062C0.292525 1.27016 0.46301 0.988155 0.677892 0.750772Z" fill="white"/>
</svg>
