<svg width="236" height="59" viewBox="0 0 236 59" fill="none" xmlns="http://www.w3.org/2000/svg">
<path d="M5.90625 0C2.64551 0 0 2.63951 0 5.89286V49.1071C0 52.3605 2.64551 55 5.90625 55H57.0938C60.3545 55 63 52.3605 63 49.1071V5.89286C63 2.63951 60.3545 0 57.0938 0H5.90625ZM5.90625 3.92857H18.9492C19.3553 3.92857 19.6875 4.26005 19.6875 4.66518V7.12054C19.6875 7.52567 19.3553 7.85714 18.9492 7.85714H4.67578C4.26973 7.85714 3.9375 7.52567 3.9375 7.12054V5.89286C3.9375 4.8125 4.82344 3.92857 5.90625 3.92857ZM58.3242 15.7143H4.67578C4.26973 15.7143 3.9375 15.3828 3.9375 14.9777V10.558C3.9375 10.1529 4.26973 9.82143 4.67578 9.82143H21.6562L25.3723 4.26004C25.5076 4.05134 25.7414 3.92857 25.9875 3.92857H57.0938C58.1766 3.92857 59.0625 4.8125 59.0625 5.89286V14.9777C59.0625 15.3828 58.7303 15.7143 58.3242 15.7143ZM31.5 48.125C23.3543 48.125 16.7344 41.5201 16.7344 33.3929C16.7344 25.2656 23.3543 18.6607 31.5 18.6607C39.6457 18.6607 46.2656 25.2656 46.2656 33.3929C46.2656 41.5201 39.6457 48.125 31.5 48.125ZM31.5 22.5893C25.5322 22.5893 20.6719 27.4386 20.6719 33.3929C20.6719 39.3471 25.5322 44.1964 31.5 44.1964C37.4678 44.1964 42.3281 39.3471 42.3281 33.3929C42.3281 27.4386 37.4678 22.5893 31.5 22.5893ZM25.5938 35.3571C24.5109 35.3571 23.625 34.4732 23.625 33.3929C23.625 29.0592 27.1564 25.5357 31.5 25.5357C32.5828 25.5357 33.4688 26.4196 33.4688 27.5C33.4688 28.5804 32.5828 29.4643 31.5 29.4643C29.3344 29.4643 27.5625 31.2321 27.5625 33.3929C27.5625 34.4732 26.6766 35.3571 25.5938 35.3571Z" fill="#D9D9D9"/>
<path d="M102.062 30.4014C102.534 30.4014 102.875 30.5967 103.087 30.9873C103.315 31.3617 103.429 31.793 103.429 32.2812C103.429 32.5254 103.404 32.737 103.355 32.916C103.307 33.0951 103.209 33.2659 103.062 33.4287C102.916 33.5752 102.721 33.7217 102.477 33.8682C102.232 33.9984 101.915 34.1449 101.524 34.3076C100.613 34.6982 99.8968 35.1702 99.376 35.7236C98.8551 36.2607 98.5947 36.7979 98.5947 37.335C98.5947 37.6768 98.7087 38.0023 98.9365 38.3115C99.1644 38.6208 99.5225 38.8975 100.011 39.1416C100.499 39.3695 101.126 39.5566 101.891 39.7031C102.672 39.8333 103.608 39.8984 104.698 39.8984C105.821 39.8984 106.887 39.7682 107.896 39.5078C108.906 39.2311 109.785 38.8486 110.533 38.3604C111.298 37.8721 111.9 37.2943 112.34 36.627C112.796 35.9596 113.023 35.2354 113.023 34.4541C113.023 33.8682 112.779 33.2578 112.291 32.623C111.803 31.9883 111.03 31.3291 109.972 30.6455C108.1 29.4248 106.676 28.4401 105.699 27.6914C104.739 26.9427 104.145 26.4707 103.917 26.2754C102.696 25.2012 101.785 24.1676 101.183 23.1748C100.58 22.182 100.279 21.1484 100.279 20.0742C100.279 19.0814 100.515 18.113 100.987 17.1689C101.476 16.2249 102.127 15.3379 102.94 14.5078C103.754 13.6777 104.69 12.9128 105.748 12.2129C106.822 11.4967 107.937 10.8864 109.093 10.3818C110.265 9.87728 111.437 9.48665 112.608 9.20996C113.797 8.91699 114.92 8.77051 115.978 8.77051C116.775 8.77051 117.507 8.86003 118.175 9.03906C118.858 9.2181 119.452 9.50293 119.957 9.89355C120.462 10.2679 120.852 10.7562 121.129 11.3584C121.422 11.9606 121.568 12.6849 121.568 13.5312C121.568 14.752 121.218 15.9157 120.519 17.0225C119.819 18.1292 118.753 19.1628 117.32 20.123C116.686 20.5625 116.1 20.7822 115.562 20.7822C115.009 20.7822 114.57 20.5869 114.244 20.1963C113.919 19.7894 113.756 19.3174 113.756 18.7803C113.756 18.3245 113.886 17.8688 114.146 17.4131C114.423 16.9574 114.863 16.5667 115.465 16.2412C115.937 15.9971 116.352 15.6715 116.71 15.2646C117.084 14.8415 117.271 14.4346 117.271 14.0439C117.271 13.6696 117.141 13.4255 116.881 13.3115C116.637 13.1976 116.336 13.1406 115.978 13.1406C115.294 13.1406 114.545 13.2301 113.731 13.4092C112.934 13.5719 112.128 13.7998 111.314 14.0928C110.517 14.3857 109.736 14.7357 108.971 15.1426C108.222 15.5495 107.555 15.9889 106.969 16.4609C106.399 16.9329 105.935 17.4375 105.577 17.9746C105.235 18.4954 105.064 19.0163 105.064 19.5371C105.064 19.8952 105.138 20.2288 105.284 20.5381C105.431 20.8473 105.642 21.1566 105.919 21.4658C106.212 21.7751 106.562 22.1006 106.969 22.4424C107.376 22.7679 107.848 23.126 108.385 23.5166L114.098 27.7402C114.83 28.2773 115.481 28.8063 116.051 29.3271C116.637 29.8317 117.125 30.3444 117.516 30.8652C117.906 31.3698 118.207 31.8825 118.419 32.4033C118.631 32.9242 118.736 33.4775 118.736 34.0635C118.736 35.3656 118.395 36.6432 117.711 37.8965C117.044 39.1335 116.083 40.2402 114.83 41.2168C113.593 42.1934 112.096 42.9827 110.338 43.585C108.596 44.1872 106.66 44.4883 104.527 44.4883C102.542 44.4883 100.849 44.3255 99.4492 44C98.0658 43.6908 96.9264 43.2676 96.0312 42.7305C95.1361 42.1771 94.485 41.5505 94.0781 40.8506C93.6712 40.1344 93.4678 39.3857 93.4678 38.6045C93.4678 37.7907 93.6712 36.9688 94.0781 36.1387C94.5013 35.2923 95.0872 34.4948 95.8359 33.7461C96.6009 32.9974 97.5124 32.3301 98.5703 31.7441C99.6283 31.1582 100.792 30.7106 102.062 30.4014Z" fill="#D9D9D9"/>
<path d="M127.354 31.5C127.973 30.8652 128.624 30.2386 129.308 29.6201C130.007 28.9854 130.732 28.4238 131.48 27.9355C132.245 27.431 133.043 27.0241 133.873 26.7148C134.703 26.4056 135.574 26.251 136.485 26.251C137.022 26.251 137.576 26.3161 138.146 26.4463C138.715 26.5602 139.228 26.7555 139.684 27.0322C140.156 27.3089 140.538 27.667 140.831 28.1064C141.124 28.5459 141.271 29.083 141.271 29.7178C141.271 30.7594 141.026 31.7035 140.538 32.5498C140.066 33.3962 139.448 34.153 138.683 34.8203C137.918 35.4876 137.063 36.0817 136.119 36.6025C135.191 37.1071 134.28 37.5384 133.385 37.8965C133.157 37.9941 132.945 38.1243 132.75 38.2871C132.555 38.4336 132.384 38.5964 132.237 38.7754C132.107 38.9382 132.001 39.1091 131.92 39.2881C131.839 39.4508 131.798 39.5892 131.798 39.7031C131.798 39.8984 131.855 40.0693 131.969 40.2158C132.099 40.346 132.319 40.4111 132.628 40.4111C133.23 40.4111 133.914 40.2891 134.679 40.0449C135.444 39.8008 136.331 39.4346 137.34 38.9463C138.365 38.4417 139.529 37.807 140.831 37.042C142.149 36.277 143.663 35.3737 145.372 34.332C145.649 34.1693 145.909 34.0879 146.153 34.0879C146.463 34.0879 146.707 34.2018 146.886 34.4297C147.065 34.6576 147.154 34.9587 147.154 35.333C147.154 35.7887 146.983 36.3096 146.642 36.8955C146.316 37.4652 145.763 38.0104 144.981 38.5312C143.891 39.1986 142.776 39.8903 141.637 40.6064C140.497 41.3226 139.326 41.9818 138.121 42.584C136.917 43.1699 135.68 43.6501 134.41 44.0244C133.141 44.415 131.839 44.6104 130.504 44.6104C128.193 44.6104 127.037 43.6094 127.037 41.6074C127.037 40.5495 127.257 39.6217 127.696 38.8242C128.152 38.0104 128.697 37.3024 129.332 36.7002C129.983 36.098 130.659 35.5853 131.358 35.1621C132.058 34.7227 132.66 34.332 133.165 33.9902C133.556 33.7624 133.922 33.5182 134.264 33.2578C134.605 32.9974 134.907 32.7288 135.167 32.4521C135.444 32.1755 135.655 31.8988 135.802 31.6221C135.965 31.3291 136.046 31.0361 136.046 30.7432C136.046 30.2712 135.826 30.0352 135.387 30.0352C133.759 30.0352 131.48 31.6058 128.551 34.7471C127.883 35.4632 127.273 36.1631 126.72 36.8467C126.166 37.514 125.646 38.1732 125.157 38.8242C124.685 39.4753 124.229 40.11 123.79 40.7285C123.351 41.3307 122.919 41.9085 122.496 42.4619C121.227 43.8942 120.095 44.6104 119.103 44.6104C118.631 44.6104 118.289 44.5208 118.077 44.3418C117.866 44.179 117.76 43.8617 117.76 43.3896C117.76 43.3245 117.76 43.2594 117.76 43.1943C117.76 43.1292 117.768 43.056 117.784 42.9746C117.817 42.6491 117.955 42.1527 118.199 41.4854C118.443 40.818 118.744 40.0612 119.103 39.2148C119.477 38.3685 119.884 37.4652 120.323 36.5049C120.779 35.5446 121.227 34.6087 121.666 33.6973C122.105 32.7695 122.521 31.9069 122.911 31.1094C123.302 30.2956 123.627 29.6201 123.888 29.083L131.603 13.3359C131.7 13.1243 131.847 12.9209 132.042 12.7256C132.254 12.5303 132.481 12.3594 132.726 12.2129C132.986 12.0501 133.255 11.9281 133.531 11.8467C133.824 11.749 134.117 11.7002 134.41 11.7002C135.143 11.7002 135.647 11.8385 135.924 12.1152C136.217 12.3919 136.363 12.7256 136.363 13.1162C136.363 13.4743 136.274 13.8486 136.095 14.2393C135.932 14.6299 135.737 14.9961 135.509 15.3379C134.825 16.5586 134.142 17.8607 133.458 19.2441C132.791 20.6113 132.123 22.0029 131.456 23.4189C130.789 24.835 130.113 26.2347 129.43 27.6182C128.746 28.9854 128.054 30.2793 127.354 31.5Z" fill="#D9D9D9"/>
<path d="M158.946 28.5215C159.402 28.1634 159.785 27.8949 160.094 27.7158C160.419 27.5205 160.696 27.3822 160.924 27.3008C161.152 27.2031 161.355 27.1462 161.534 27.1299C161.729 27.1136 161.925 27.1055 162.12 27.1055C162.462 27.1055 162.706 27.2357 162.853 27.4961C162.999 27.7402 163.072 28.0007 163.072 28.2773C163.072 28.5052 163.032 28.7168 162.95 28.9121L157.481 40.3135C158.263 39.7275 159.158 39.1579 160.167 38.6045C161.192 38.0348 162.169 37.5303 163.097 37.0908C164.041 36.6351 164.846 36.2689 165.514 35.9922C166.197 35.7155 166.588 35.5771 166.686 35.5771C167.092 35.5771 167.451 35.7318 167.76 36.041C168.069 36.3503 168.224 36.7409 168.224 37.2129C168.224 37.6361 168.061 38.0837 167.735 38.5557C167.426 39.0277 166.873 39.4834 166.075 39.9229C164.936 40.5576 163.943 41.1029 163.097 41.5586C162.25 41.998 161.502 42.3968 160.851 42.7549C160.2 43.113 159.622 43.4385 159.117 43.7314C158.613 44.0244 158.132 44.3255 157.677 44.6348C157.237 44.944 156.798 45.2695 156.358 45.6113C155.935 45.9694 155.471 46.3844 154.967 46.8564C154.592 47.833 154.218 48.7689 153.844 49.6641C153.486 50.5592 153.152 51.3486 152.843 52.0322C152.55 52.7158 152.306 53.2692 152.11 53.6924C151.915 54.1156 151.809 54.3434 151.793 54.376C150.475 57.1104 149.026 58.4775 147.447 58.4775C146.796 58.4775 146.267 58.2578 145.86 57.8184C145.453 57.3952 145.25 56.8174 145.25 56.085C145.25 55.4014 145.331 54.7178 145.494 54.0342C145.673 53.3669 145.974 52.6263 146.397 51.8125C146.837 50.9987 147.407 50.0872 148.106 49.0781C148.823 48.0853 149.718 46.9134 150.792 45.5625L155.675 35.6748C153.233 38.5719 151.02 40.7855 149.034 42.3154C147.049 43.8454 145.193 44.6104 143.468 44.6104C142.914 44.6104 142.442 44.4801 142.052 44.2197C141.661 43.9756 141.466 43.5605 141.466 42.9746C141.466 42.1608 141.661 41.2412 142.052 40.2158C142.28 39.6624 142.507 39.1579 142.735 38.7021C142.963 38.2301 143.199 37.7663 143.443 37.3105C143.688 36.8385 143.94 36.334 144.2 35.7969C144.477 35.2598 144.77 34.6576 145.079 33.9902C145.405 33.3066 145.755 32.5254 146.129 31.6465C146.52 30.7513 146.951 29.7096 147.423 28.5215C147.748 27.8867 148.172 27.431 148.692 27.1543C149.213 26.8613 149.718 26.7148 150.206 26.7148C150.711 26.7148 151.134 26.8369 151.476 27.0811C151.834 27.3089 152.013 27.6182 152.013 28.0088C152.013 28.2041 151.98 28.375 151.915 28.5215L147.447 37.8232C147.219 38.2952 147.105 38.6696 147.105 38.9463C147.105 39.1904 147.203 39.3125 147.398 39.3125C147.577 39.3125 147.805 39.223 148.082 39.0439C148.359 38.8649 148.619 38.6615 148.863 38.4336L158.946 28.5215Z" fill="#D9D9D9"/>
<path d="M182.14 30.8896C181.83 31.5732 181.489 32.3952 181.114 33.3555C180.74 34.3158 180.333 35.3167 179.894 36.3584C179.454 37.4001 178.982 38.4336 178.478 39.459C177.989 40.4844 177.468 41.404 176.915 42.2178C176.378 43.0153 175.816 43.6663 175.23 44.1709C174.661 44.6755 174.075 44.9277 173.473 44.9277C172.968 44.9277 172.553 44.8464 172.228 44.6836C171.902 44.5371 171.65 44.3418 171.471 44.0977C171.292 43.8698 171.161 43.6175 171.08 43.3408C171.015 43.0479 170.982 42.7712 170.982 42.5107C170.982 42.1201 171.039 41.7214 171.153 41.3145C171.284 40.9076 171.438 40.5332 171.617 40.1914L180.968 22.9795C181.375 22.2633 181.757 21.7018 182.115 21.2949C182.49 20.888 182.831 20.5869 183.141 20.3916C183.466 20.1963 183.751 20.0824 183.995 20.0498C184.239 20.001 184.443 19.9766 184.605 19.9766C184.898 19.9766 185.167 20.0824 185.411 20.2939C185.655 20.4893 185.777 20.8555 185.777 21.3926C185.777 21.9134 185.639 22.6296 185.362 23.541C185.086 24.4525 184.573 25.6243 183.824 27.0566C185.094 26.959 186.347 26.7474 187.584 26.4219C188.821 26.0801 189.928 25.6162 190.904 25.0303C191.897 24.4443 192.695 23.7363 193.297 22.9062C193.899 22.0599 194.2 21.0833 194.2 19.9766C194.2 19 194.037 18.0723 193.712 17.1934C193.403 16.2982 192.939 15.5169 192.32 14.8496C191.718 14.166 190.969 13.6289 190.074 13.2383C189.179 12.8314 188.146 12.6279 186.974 12.6279C185.379 12.6279 184.003 12.7826 182.848 13.0918C181.708 13.3848 180.724 13.7754 179.894 14.2637C179.08 14.752 178.396 15.3135 177.843 15.9482C177.289 16.583 176.809 17.2259 176.402 17.877C176.012 18.528 175.662 19.1709 175.353 19.8057C175.043 20.4404 174.718 21.002 174.376 21.4902C174.05 21.9785 173.676 22.3773 173.253 22.6865C172.83 22.9795 172.309 23.126 171.69 23.126C170.893 23.126 170.299 22.9225 169.908 22.5156C169.534 22.1087 169.347 21.5309 169.347 20.7822C169.347 20.0335 169.55 19.2197 169.957 18.3408C170.364 17.4456 170.942 16.5505 171.69 15.6553C172.439 14.7601 173.342 13.9056 174.4 13.0918C175.475 12.2617 176.679 11.5293 178.014 10.8945C179.348 10.2598 180.797 9.75521 182.359 9.38086C183.938 8.99023 185.598 8.79492 187.34 8.79492C188.967 8.79492 190.53 9.03092 192.027 9.50293C193.541 9.95866 194.876 10.6504 196.031 11.5781C197.187 12.5059 198.106 13.6696 198.79 15.0693C199.49 16.4528 199.84 18.0804 199.84 19.9521C199.84 21.6611 199.425 23.2074 198.595 24.5908C197.781 25.958 196.674 27.1217 195.274 28.082C193.891 29.026 192.288 29.7585 190.465 30.2793C188.642 30.7839 186.721 31.0361 184.703 31.0361C184.28 31.0361 183.849 31.028 183.409 31.0117C182.986 30.9954 182.563 30.9548 182.14 30.8896Z" fill="#D9D9D9"/>
<path d="M201.061 22.8818C201.061 22.5075 201.126 22.125 201.256 21.7344C201.402 21.3275 201.614 20.9613 201.891 20.6357C202.167 20.3102 202.509 20.0417 202.916 19.8301C203.339 19.6185 203.836 19.5127 204.405 19.5127C205.349 19.5127 206.008 19.6999 206.383 20.0742C206.757 20.4323 206.944 20.888 206.944 21.4414C206.944 21.7507 206.879 22.0924 206.749 22.4668C206.635 22.8411 206.456 23.1911 206.212 23.5166C205.968 23.8258 205.65 24.0863 205.26 24.2979C204.869 24.5094 204.405 24.6152 203.868 24.6152C202.859 24.6152 202.151 24.4606 201.744 24.1514C201.337 23.8258 201.109 23.4027 201.061 22.8818ZM198.375 28.375C198.652 27.9193 198.969 27.5938 199.327 27.3984C199.685 27.2031 200.051 27.1055 200.426 27.1055C201.044 27.1055 201.573 27.3089 202.013 27.7158C202.468 28.1064 202.696 28.611 202.696 29.2295C202.68 29.376 202.656 29.5225 202.623 29.6689C202.607 29.8154 202.558 29.9619 202.477 30.1084C202.249 30.5316 202.062 30.8896 201.915 31.1826C201.769 31.4756 201.63 31.7523 201.5 32.0127C201.386 32.2568 201.272 32.501 201.158 32.7451C201.044 32.9893 200.906 33.2822 200.743 33.624C200.548 34.0309 200.328 34.4785 200.084 34.9668C199.84 35.4388 199.604 35.9271 199.376 36.4316C199.164 36.9362 198.977 37.4326 198.814 37.9209C198.668 38.4092 198.595 38.8568 198.595 39.2637C198.595 39.7031 198.701 39.9961 198.912 40.1426C199.14 40.2728 199.457 40.3379 199.864 40.3379C200.32 40.3379 200.792 40.2402 201.28 40.0449C201.785 39.8496 202.289 39.5973 202.794 39.2881C203.299 38.9788 203.795 38.6289 204.283 38.2383C204.771 37.8314 205.227 37.4245 205.65 37.0176C206.09 36.6107 206.489 36.2201 206.847 35.8457C207.221 35.4714 207.53 35.1377 207.774 34.8447C208.1 34.5355 208.425 34.3809 208.751 34.3809C209.044 34.3809 209.28 34.5111 209.459 34.7715C209.654 35.0319 209.752 35.3656 209.752 35.7725C209.752 36.1468 209.654 36.5456 209.459 36.9688C209.28 37.3919 208.979 37.7907 208.556 38.165C207.726 39.0114 206.879 39.8252 206.017 40.6064C205.154 41.3714 204.267 42.055 203.355 42.6572C202.46 43.2432 201.557 43.7152 200.646 44.0732C199.734 44.4313 198.814 44.6104 197.887 44.6104C196.568 44.6104 195.527 44.2767 194.762 43.6094C194.013 42.9258 193.639 41.8678 193.639 40.4355C193.639 39.6868 193.744 38.9544 193.956 38.2383C194.168 37.5221 194.42 36.8304 194.713 36.1631C195.006 35.4795 195.315 34.8284 195.641 34.21C195.966 33.5752 196.243 32.973 196.471 32.4033C196.552 32.1917 196.69 31.8662 196.886 31.4268C197.097 30.9873 197.317 30.5397 197.545 30.084C197.805 29.5469 198.082 28.9772 198.375 28.375Z" fill="#D9D9D9"/>
<path d="M220.665 28.4971C220.665 29.0016 220.608 29.5632 220.494 30.1816C220.38 30.7839 220.193 31.3535 219.933 31.8906C219.672 32.4277 219.339 32.8753 218.932 33.2334C218.525 33.5915 218.02 33.7705 217.418 33.7705C217.092 33.7705 216.881 33.7217 216.783 33.624C216.702 33.5264 216.661 33.3555 216.661 33.1113C216.661 32.9648 216.661 32.7533 216.661 32.4766C216.677 32.1836 216.686 31.9069 216.686 31.6465C216.686 31.3535 216.645 31.1094 216.563 30.9141C216.482 30.7025 216.279 30.5967 215.953 30.5967C215.579 30.5967 215.156 30.7432 214.684 31.0361C214.228 31.3128 213.764 31.679 213.292 32.1348C212.836 32.5905 212.389 33.1113 211.949 33.6973C211.51 34.2669 211.111 34.8529 210.753 35.4551C210.411 36.041 210.134 36.6107 209.923 37.1641C209.728 37.7174 209.63 38.1895 209.63 38.5801C209.63 39.1497 209.825 39.5973 210.216 39.9229C210.623 40.2484 211.168 40.4111 211.852 40.4111C212.584 40.4111 213.365 40.2891 214.195 40.0449C215.025 39.8008 215.847 39.4915 216.661 39.1172C217.491 38.7428 218.289 38.3359 219.054 37.8965C219.819 37.457 220.51 37.042 221.129 36.6514C221.764 36.2445 222.293 35.9027 222.716 35.626C223.139 35.333 223.416 35.154 223.546 35.0889C223.806 34.9587 224.05 34.8936 224.278 34.8936C224.474 34.8936 224.636 34.9424 224.767 35.04C224.913 35.1214 225.027 35.2272 225.108 35.3574C225.19 35.4714 225.247 35.6016 225.279 35.748C225.312 35.8783 225.328 35.9922 225.328 36.0898C225.328 36.2363 225.312 36.4154 225.279 36.627C225.247 36.8223 225.125 37.0501 224.913 37.3105C224.832 37.4082 224.563 37.6605 224.107 38.0674C223.668 38.458 223.09 38.9219 222.374 39.459C221.674 39.9961 220.86 40.5739 219.933 41.1924C219.021 41.7946 218.036 42.348 216.979 42.8525C215.937 43.3571 214.854 43.7721 213.731 44.0977C212.608 44.4395 211.502 44.6104 210.411 44.6104C209.581 44.6104 208.84 44.4801 208.189 44.2197C207.555 43.9593 207.018 43.6094 206.578 43.1699C206.139 42.7142 205.805 42.1852 205.577 41.583C205.349 40.9808 205.235 40.346 205.235 39.6787C205.235 38.9463 205.406 38.1081 205.748 37.1641C206.09 36.2038 206.562 35.2272 207.164 34.2344C207.766 33.2415 208.474 32.265 209.288 31.3047C210.102 30.3444 210.981 29.4899 211.925 28.7412C212.885 27.9925 213.878 27.3903 214.903 26.9346C215.945 26.4788 216.995 26.251 218.053 26.251C218.411 26.251 218.744 26.2917 219.054 26.373C219.379 26.4544 219.656 26.5846 219.884 26.7637C220.128 26.9264 220.315 27.1543 220.445 27.4473C220.592 27.7402 220.665 28.0902 220.665 28.4971Z" fill="#D9D9D9"/>
<path d="M229.674 30.2549C230.667 30.7757 231.554 31.3698 232.335 32.0371C233.116 32.7044 233.775 33.4124 234.312 34.1611C234.866 34.8936 235.281 35.6423 235.558 36.4072C235.851 37.1722 235.997 37.9209 235.997 38.6533C235.997 39.5811 235.729 40.4193 235.191 41.168C234.671 41.9004 233.979 42.527 233.116 43.0479C232.27 43.5524 231.293 43.9349 230.187 44.1953C229.096 44.472 227.989 44.6104 226.866 44.6104C226.02 44.6104 225.198 44.5127 224.4 44.3174C223.603 44.1383 222.87 43.8535 222.203 43.4629C221.552 43.0723 220.991 42.5758 220.519 41.9736C220.047 41.3551 219.713 40.6227 219.518 39.7764C219.485 39.6462 219.469 39.5404 219.469 39.459C219.469 39.0195 219.623 38.6452 219.933 38.3359C220.242 38.0104 220.584 37.8477 220.958 37.8477C221.137 37.8477 221.332 37.8802 221.544 37.9453C221.772 38.0104 221.943 38.1569 222.057 38.3848C222.268 38.7754 222.561 39.1253 222.936 39.4346C223.326 39.7438 223.757 40.0124 224.229 40.2402C224.701 40.4518 225.198 40.6227 225.719 40.7529C226.256 40.8669 226.777 40.9238 227.281 40.9238C227.802 40.9238 228.299 40.875 228.771 40.7773C229.259 40.6797 229.682 40.5251 230.04 40.3135C230.414 40.1019 230.707 39.8333 230.919 39.5078C231.131 39.1823 231.236 38.7835 231.236 38.3115C231.236 37.4814 231.049 36.7165 230.675 36.0166C230.3 35.3167 229.812 34.6738 229.21 34.0879C228.624 33.4857 227.949 32.9323 227.184 32.4277C226.435 31.9069 225.686 31.4105 224.938 30.9385C224.856 30.8896 224.734 30.7513 224.571 30.5234C224.409 30.2793 224.327 30.0352 224.327 29.791C224.327 29.5957 224.376 29.4411 224.474 29.3271C224.734 28.9854 225.035 28.6354 225.377 28.2773C225.719 27.9193 226.085 27.5938 226.476 27.3008C226.866 26.9915 227.289 26.7474 227.745 26.5684C228.201 26.373 228.673 26.2754 229.161 26.2754C229.519 26.2754 229.853 26.3242 230.162 26.4219C230.471 26.5195 230.732 26.6497 230.943 26.8125C231.155 26.959 231.318 27.1299 231.432 27.3252C231.562 27.5042 231.627 27.6751 231.627 27.8379C231.627 28.0658 231.57 28.2855 231.456 28.4971C231.342 28.7087 231.188 28.9121 230.992 29.1074C230.813 29.3027 230.602 29.498 230.357 29.6934C230.13 29.8887 229.902 30.0758 229.674 30.2549Z" fill="#D9D9D9"/>
</svg>
