<svg width="39" height="33" viewBox="0 0 39 33" fill="none" xmlns="http://www.w3.org/2000/svg">
<path d="M3.65625 0C1.6377 0 0 1.58371 0 3.53571V29.4643C0 31.4163 1.6377 33 3.65625 33H35.3438C37.3623 33 39 31.4163 39 29.4643V3.53571C39 1.58371 37.3623 0 35.3438 0H3.65625ZM3.65625 2.35714H11.7305C11.9818 2.35714 12.1875 2.55603 12.1875 2.79911V4.27232C12.1875 4.5154 11.9818 4.71429 11.7305 4.71429H2.89453C2.64316 4.71429 2.4375 4.5154 2.4375 4.27232V3.53571C2.4375 2.8875 2.98594 2.35714 3.65625 2.35714ZM36.1055 9.42857H2.89453C2.64316 9.42857 2.4375 9.22969 2.4375 8.98661V6.33482C2.4375 6.09174 2.64316 5.89286 2.89453 5.89286H13.4062L15.7066 2.55603C15.7904 2.4308 15.9352 2.35714 16.0875 2.35714H35.3438C36.0141 2.35714 36.5625 2.8875 36.5625 3.53571V8.98661C36.5625 9.22969 36.3568 9.42857 36.1055 9.42857ZM19.5 28.875C14.4574 28.875 10.3594 24.9121 10.3594 20.0357C10.3594 15.1594 14.4574 11.1964 19.5 11.1964C24.5426 11.1964 28.6406 15.1594 28.6406 20.0357C28.6406 24.9121 24.5426 28.875 19.5 28.875ZM19.5 13.5536C15.8057 13.5536 12.7969 16.4632 12.7969 20.0357C12.7969 23.6083 15.8057 26.5179 19.5 26.5179C23.1943 26.5179 26.2031 23.6083 26.2031 20.0357C26.2031 16.4632 23.1943 13.5536 19.5 13.5536ZM15.8438 21.2143C15.1734 21.2143 14.625 20.6839 14.625 20.0357C14.625 17.4355 16.8111 15.3214 19.5 15.3214C20.1703 15.3214 20.7188 15.8518 20.7188 16.5C20.7188 17.1482 20.1703 17.6786 19.5 17.6786C18.1594 17.6786 17.0625 18.7393 17.0625 20.0357C17.0625 20.6839 16.5141 21.2143 15.8438 21.2143Z" fill="#D9D9D9"/>
</svg>
