<svg width="286" height="100" viewBox="0 0 286 100" fill="none" xmlns="http://www.w3.org/2000/svg">
<path d="M17.5781 43.8027C18.5221 43.8027 19.2057 44.1934 19.6289 44.9746C20.0846 45.7233 20.3125 46.5859 20.3125 47.5625C20.3125 48.0508 20.2637 48.474 20.166 48.832C20.0684 49.1901 19.873 49.5319 19.5801 49.8574C19.2871 50.1504 18.8965 50.4434 18.4082 50.7363C17.9199 50.9967 17.2852 51.2897 16.5039 51.6152C14.681 52.3965 13.2487 53.3405 12.207 54.4473C11.1654 55.5215 10.6445 56.5957 10.6445 57.6699C10.6445 58.3535 10.8724 59.0046 11.3281 59.623C11.7839 60.2415 12.5 60.7949 13.4766 61.2832C14.4531 61.7389 15.7064 62.1133 17.2363 62.4062C18.7988 62.6667 20.6706 62.7969 22.8516 62.7969C25.0977 62.7969 27.2298 62.5365 29.248 62.0156C31.2663 61.4622 33.0241 60.6973 34.5215 59.7207C36.0514 58.7441 37.2559 57.5885 38.1348 56.2539C39.0462 54.9193 39.502 53.4707 39.502 51.9082C39.502 50.7363 39.0137 49.5156 38.0371 48.2461C37.0605 46.9766 35.5143 45.6582 33.3984 44.291C29.6549 41.8496 26.8066 39.8802 24.8535 38.3828C22.9329 36.8854 21.7448 35.9414 21.2891 35.5508C18.8477 33.4023 17.0247 31.3353 15.8203 29.3496C14.6159 27.3639 14.0137 25.2969 14.0137 23.1484C14.0137 21.1628 14.4857 19.2259 15.4297 17.3379C16.4062 15.4499 17.7083 13.6758 19.3359 12.0156C20.9635 10.3555 22.8353 8.82552 24.9512 7.42578C27.0996 5.99349 29.3294 4.77279 31.6406 3.76367C33.9844 2.75456 36.3281 1.97331 38.6719 1.41992C41.0482 0.833984 43.2943 0.541016 45.4102 0.541016C47.0052 0.541016 48.4701 0.720052 49.8047 1.07812C51.1719 1.4362 52.36 2.00586 53.3691 2.78711C54.3783 3.53581 55.1595 4.51237 55.7129 5.7168C56.2988 6.92122 56.5918 8.36979 56.5918 10.0625C56.5918 12.5039 55.8919 14.8314 54.4922 17.0449C53.0924 19.2585 50.9603 21.3255 48.0957 23.2461C46.8262 24.125 45.6543 24.5645 44.5801 24.5645C43.4733 24.5645 42.5944 24.1738 41.9434 23.3926C41.2923 22.5788 40.9668 21.6348 40.9668 20.5605C40.9668 19.6491 41.2272 18.7376 41.748 17.8262C42.3014 16.9147 43.1803 16.1335 44.3848 15.4824C45.3288 14.9941 46.1589 14.3431 46.875 13.5293C47.6237 12.6829 47.998 11.8691 47.998 11.0879C47.998 10.3392 47.7376 9.85091 47.2168 9.62305C46.7285 9.39518 46.1263 9.28125 45.4102 9.28125C44.043 9.28125 42.5456 9.46029 40.918 9.81836C39.3229 10.1439 37.7116 10.5996 36.084 11.1855C34.4889 11.7715 32.9264 12.4714 31.3965 13.2852C29.8991 14.099 28.5645 14.9779 27.3926 15.9219C26.2533 16.8659 25.3255 17.875 24.6094 18.9492C23.9258 19.9909 23.584 21.0326 23.584 22.0742C23.584 22.7904 23.7305 23.4577 24.0234 24.0762C24.3164 24.6947 24.7396 25.3132 25.293 25.9316C25.8789 26.5501 26.5788 27.2012 27.3926 27.8848C28.2064 28.5358 29.1504 29.252 30.2246 30.0332L41.6504 38.4805C43.1152 39.5547 44.4173 40.6126 45.5566 41.6543C46.7285 42.6634 47.7051 43.6888 48.4863 44.7305C49.2676 45.7396 49.8698 46.765 50.293 47.8066C50.7161 48.8483 50.9277 49.9551 50.9277 51.127C50.9277 53.7311 50.2441 56.2865 48.877 58.793C47.5423 61.2669 45.6217 63.4805 43.1152 65.4336C40.6413 67.3867 37.6465 68.9655 34.1309 70.1699C30.6478 71.3743 26.7741 71.9766 22.5098 71.9766C18.5384 71.9766 15.153 71.651 12.3535 71C9.58659 70.3815 7.30794 69.5352 5.51758 68.4609C3.72721 67.3542 2.42513 66.1009 1.61133 64.7012C0.797526 63.2689 0.390625 61.7715 0.390625 60.209C0.390625 58.5814 0.797526 56.9375 1.61133 55.2773C2.45768 53.5846 3.62956 51.9896 5.12695 50.4922C6.6569 48.9948 8.47982 47.6602 10.5957 46.4883C12.7116 45.3164 15.0391 44.4212 17.5781 43.8027ZM68.1641 46C69.401 44.7305 70.7031 43.4772 72.0703 42.2402C73.4701 40.9707 74.9186 39.8477 76.416 38.8711C77.946 37.862 79.541 37.0482 81.2012 36.4297C82.8613 35.8112 84.6029 35.502 86.4258 35.502C87.5 35.502 88.6068 35.6322 89.7461 35.8926C90.8854 36.1204 91.9108 36.5111 92.8223 37.0645C93.7663 37.6178 94.5312 38.334 95.1172 39.2129C95.7031 40.0918 95.9961 41.166 95.9961 42.4355C95.9961 44.5189 95.5078 46.4069 94.5312 48.0996C93.5872 49.7923 92.3503 51.306 90.8203 52.6406C89.2904 53.9753 87.5814 55.1634 85.6934 56.2051C83.8379 57.2142 82.015 58.0768 80.2246 58.793C79.7689 58.9883 79.3457 59.2487 78.9551 59.5742C78.5645 59.8672 78.2227 60.1927 77.9297 60.5508C77.6693 60.8763 77.4577 61.2181 77.2949 61.5762C77.1322 61.9017 77.0508 62.1784 77.0508 62.4062C77.0508 62.7969 77.1647 63.1387 77.3926 63.4316C77.653 63.6921 78.0924 63.8223 78.7109 63.8223C79.9154 63.8223 81.2826 63.5781 82.8125 63.0898C84.3424 62.6016 86.1165 61.8691 88.1348 60.8926C90.1855 59.8835 92.513 58.6139 95.1172 57.084C97.7539 55.554 100.781 53.7474 104.199 51.6641C104.753 51.3385 105.273 51.1758 105.762 51.1758C106.38 51.1758 106.868 51.4036 107.227 51.8594C107.585 52.3151 107.764 52.9173 107.764 53.666C107.764 54.5775 107.422 55.6191 106.738 56.791C106.087 57.9303 104.98 59.0208 103.418 60.0625C101.237 61.3971 99.0072 62.7806 96.7285 64.2129C94.4499 65.6452 92.1061 66.9635 89.6973 68.168C87.2884 69.3398 84.8145 70.3001 82.2754 71.0488C79.7363 71.8301 77.1322 72.2207 74.4629 72.2207C69.8405 72.2207 67.5293 70.2188 67.5293 66.2148C67.5293 64.099 67.9688 62.2435 68.8477 60.6484C69.7591 59.0208 70.8496 57.6048 72.1191 56.4004C73.4212 55.196 74.7721 54.1706 76.1719 53.3242C77.5716 52.4453 78.776 51.6641 79.7852 50.9805C80.5664 50.5247 81.2988 50.0365 81.9824 49.5156C82.666 48.9948 83.2682 48.4577 83.7891 47.9043C84.3424 47.3509 84.7656 46.7975 85.0586 46.2441C85.3841 45.6582 85.5469 45.0723 85.5469 44.4863C85.5469 43.5423 85.1074 43.0703 84.2285 43.0703C80.9733 43.0703 76.416 46.2116 70.5566 52.4941C69.222 53.9264 68.0013 55.3262 66.8945 56.6934C65.7878 58.028 64.7461 59.3464 63.7695 60.6484C62.8255 61.9505 61.9141 63.2201 61.0352 64.457C60.1562 65.6615 59.2936 66.8171 58.4473 67.9238C55.9082 70.7884 53.6458 72.2207 51.6602 72.2207C50.7161 72.2207 50.0326 72.0417 49.6094 71.6836C49.1862 71.3581 48.9746 70.7233 48.9746 69.7793C48.9746 69.6491 48.9746 69.5189 48.9746 69.3887C48.9746 69.2585 48.9909 69.112 49.0234 68.9492C49.0885 68.2982 49.3652 67.3053 49.8535 65.9707C50.3418 64.6361 50.944 63.1224 51.6602 61.4297C52.4089 59.737 53.2227 57.9303 54.1016 56.0098C55.013 54.0892 55.9082 52.2174 56.7871 50.3945C57.666 48.5391 58.4961 46.8138 59.2773 45.2188C60.0586 43.5911 60.7096 42.2402 61.2305 41.166L76.6602 9.67188C76.8555 9.2487 77.1484 8.8418 77.5391 8.45117C77.9622 8.06055 78.418 7.71875 78.9062 7.42578C79.4271 7.10026 79.9642 6.85612 80.5176 6.69336C81.1035 6.49805 81.6895 6.40039 82.2754 6.40039C83.7402 6.40039 84.7493 6.67708 85.3027 7.23047C85.8887 7.78385 86.1816 8.45117 86.1816 9.23242C86.1816 9.94857 86.0026 10.6973 85.6445 11.4785C85.319 12.2598 84.9284 12.9922 84.4727 13.6758C83.1055 16.1172 81.7383 18.7214 80.3711 21.4883C79.0365 24.2227 77.7018 27.0059 76.3672 29.8379C75.0326 32.6699 73.6816 35.4694 72.3145 38.2363C70.9473 40.9707 69.5638 43.5586 68.1641 46ZM131.348 40.043C132.259 39.3268 133.024 38.7897 133.643 38.4316C134.294 38.041 134.847 37.7643 135.303 37.6016C135.758 37.4062 136.165 37.2923 136.523 37.2598C136.914 37.2272 137.305 37.2109 137.695 37.2109C138.379 37.2109 138.867 37.4714 139.16 37.9922C139.453 38.4805 139.6 39.0013 139.6 39.5547C139.6 40.0104 139.518 40.4336 139.355 40.8242L128.418 63.627C129.98 62.4551 131.771 61.3158 133.789 60.209C135.84 59.0697 137.793 58.0605 139.648 57.1816C141.536 56.2702 143.148 55.5378 144.482 54.9844C145.85 54.431 146.631 54.1543 146.826 54.1543C147.64 54.1543 148.356 54.4635 148.975 55.082C149.593 55.7005 149.902 56.4818 149.902 57.4258C149.902 58.2721 149.577 59.1673 148.926 60.1113C148.307 61.0553 147.201 61.9668 145.605 62.8457C143.327 64.1152 141.341 65.2057 139.648 66.1172C137.956 66.9961 136.458 67.7936 135.156 68.5098C133.854 69.2259 132.699 69.877 131.689 70.4629C130.68 71.0488 129.72 71.651 128.809 72.2695C127.93 72.888 127.051 73.5391 126.172 74.2227C125.326 74.9388 124.398 75.7689 123.389 76.7129C122.64 78.666 121.891 80.5378 121.143 82.3281C120.426 84.1185 119.759 85.6973 119.141 87.0645C118.555 88.4316 118.066 89.5384 117.676 90.3848C117.285 91.2311 117.074 91.6868 117.041 91.752C114.404 97.2207 111.507 99.9551 108.35 99.9551C107.048 99.9551 105.99 99.5156 105.176 98.6367C104.362 97.7904 103.955 96.6348 103.955 95.1699C103.955 93.8027 104.118 92.4355 104.443 91.0684C104.801 89.7337 105.404 88.2526 106.25 86.625C107.129 84.9974 108.268 83.1745 109.668 81.1562C111.1 79.1706 112.891 76.8268 115.039 74.125L124.805 54.3496C119.922 60.1439 115.495 64.571 111.523 67.6309C107.552 70.6908 103.841 72.2207 100.391 72.2207C99.2839 72.2207 98.3398 71.9603 97.5586 71.4395C96.7773 70.9512 96.3867 70.1211 96.3867 68.9492C96.3867 67.3216 96.7773 65.4824 97.5586 63.4316C98.0143 62.3249 98.4701 61.3158 98.9258 60.4043C99.3815 59.4603 99.8535 58.5326 100.342 57.6211C100.83 56.6771 101.335 55.668 101.855 54.5938C102.409 53.5195 102.995 52.3151 103.613 50.9805C104.264 49.6133 104.964 48.0508 105.713 46.293C106.494 44.5026 107.357 42.4193 108.301 40.043C108.952 38.7734 109.798 37.862 110.84 37.3086C111.882 36.7227 112.891 36.4297 113.867 36.4297C114.876 36.4297 115.723 36.6738 116.406 37.1621C117.122 37.6178 117.48 38.2363 117.48 39.0176C117.48 39.4082 117.415 39.75 117.285 40.043L108.35 58.6465C107.894 59.5905 107.666 60.3392 107.666 60.8926C107.666 61.3809 107.861 61.625 108.252 61.625C108.61 61.625 109.066 61.446 109.619 61.0879C110.173 60.7298 110.693 60.3229 111.182 59.8672L131.348 40.043ZM177.734 44.7793C177.116 46.1465 176.432 47.7904 175.684 49.7109C174.935 51.6315 174.121 53.6335 173.242 55.7168C172.363 57.8001 171.419 59.8672 170.41 61.918C169.434 63.9688 168.392 65.8079 167.285 67.4355C166.211 69.0306 165.088 70.3327 163.916 71.3418C162.777 72.3509 161.605 72.8555 160.4 72.8555C159.391 72.8555 158.561 72.6927 157.91 72.3672C157.259 72.0742 156.755 71.6836 156.396 71.1953C156.038 70.7396 155.778 70.235 155.615 69.6816C155.485 69.0957 155.42 68.5423 155.42 68.0215C155.42 67.2402 155.534 66.4427 155.762 65.6289C156.022 64.8151 156.331 64.0664 156.689 63.3828L175.391 28.959C176.204 27.5267 176.969 26.4036 177.686 25.5898C178.434 24.776 179.118 24.1738 179.736 23.7832C180.387 23.3926 180.957 23.1647 181.445 23.0996C181.934 23.002 182.34 22.9531 182.666 22.9531C183.252 22.9531 183.789 23.1647 184.277 23.5879C184.766 23.9785 185.01 24.7109 185.01 25.7852C185.01 26.8268 184.733 28.2591 184.18 30.082C183.626 31.9049 182.601 34.2487 181.104 37.1133C183.643 36.918 186.149 36.4948 188.623 35.8438C191.097 35.1602 193.311 34.2324 195.264 33.0605C197.249 31.8887 198.844 30.4727 200.049 28.8125C201.253 27.1198 201.855 25.1667 201.855 22.9531C201.855 21 201.53 19.1445 200.879 17.3867C200.26 15.5964 199.333 14.0339 198.096 12.6992C196.891 11.332 195.394 10.2578 193.604 9.47656C191.813 8.66276 189.746 8.25586 187.402 8.25586C184.212 8.25586 181.462 8.5651 179.15 9.18359C176.872 9.76953 174.902 10.5508 173.242 11.5273C171.615 12.5039 170.247 13.627 169.141 14.8965C168.034 16.166 167.074 17.4518 166.26 18.7539C165.479 20.056 164.779 21.3418 164.16 22.6113C163.542 23.8809 162.891 25.0039 162.207 25.9805C161.556 26.957 160.807 27.7546 159.961 28.373C159.115 28.959 158.073 29.252 156.836 29.252C155.241 29.252 154.053 28.8451 153.271 28.0312C152.523 27.2174 152.148 26.0618 152.148 24.5645C152.148 23.0671 152.555 21.4395 153.369 19.6816C154.183 17.8913 155.339 16.1009 156.836 14.3105C158.333 12.5202 160.14 10.8112 162.256 9.18359C164.404 7.52344 166.813 6.05859 169.482 4.78906C172.152 3.51953 175.049 2.51042 178.174 1.76172C181.331 0.980469 184.652 0.589844 188.135 0.589844C191.39 0.589844 194.515 1.06185 197.51 2.00586C200.537 2.91732 203.206 4.30078 205.518 6.15625C207.829 8.01172 209.668 10.3392 211.035 13.1387C212.435 15.9056 213.135 19.1608 213.135 22.9043C213.135 26.3223 212.305 29.4147 210.645 32.1816C209.017 34.916 206.803 37.2435 204.004 39.1641C201.237 41.0521 198.031 42.5169 194.385 43.5586C190.739 44.5677 186.898 45.0723 182.861 45.0723C182.015 45.0723 181.152 45.056 180.273 45.0234C179.427 44.9909 178.581 44.9095 177.734 44.7793ZM215.576 28.7637C215.576 28.015 215.706 27.25 215.967 26.4688C216.26 25.6549 216.683 24.9225 217.236 24.2715C217.79 23.6204 218.473 23.0833 219.287 22.6602C220.133 22.237 221.126 22.0254 222.266 22.0254C224.154 22.0254 225.472 22.3997 226.221 23.1484C226.969 23.8646 227.344 24.776 227.344 25.8828C227.344 26.5013 227.214 27.1849 226.953 27.9336C226.725 28.6823 226.367 29.3822 225.879 30.0332C225.391 30.6517 224.756 31.1725 223.975 31.5957C223.193 32.0189 222.266 32.2305 221.191 32.2305C219.173 32.2305 217.757 31.9212 216.943 31.3027C216.13 30.6517 215.674 29.8053 215.576 28.7637ZM210.205 39.75C210.758 38.8385 211.393 38.1875 212.109 37.7969C212.826 37.4062 213.558 37.2109 214.307 37.2109C215.544 37.2109 216.602 37.6178 217.48 38.4316C218.392 39.2129 218.848 40.222 218.848 41.459C218.815 41.752 218.766 42.0449 218.701 42.3379C218.669 42.6309 218.571 42.9238 218.408 43.2168C217.952 44.0632 217.578 44.7793 217.285 45.3652C216.992 45.9512 216.715 46.5046 216.455 47.0254C216.227 47.5137 215.999 48.002 215.771 48.4902C215.544 48.9785 215.267 49.5645 214.941 50.248C214.551 51.0618 214.111 51.957 213.623 52.9336C213.135 53.8776 212.663 54.8542 212.207 55.8633C211.784 56.8724 211.41 57.8652 211.084 58.8418C210.791 59.8184 210.645 60.7135 210.645 61.5273C210.645 62.4062 210.856 62.9922 211.279 63.2852C211.735 63.5456 212.37 63.6758 213.184 63.6758C214.095 63.6758 215.039 63.4805 216.016 63.0898C217.025 62.6992 218.034 62.1947 219.043 61.5762C220.052 60.9577 221.045 60.2578 222.021 59.4766C222.998 58.6628 223.91 57.849 224.756 57.0352C225.635 56.2214 226.432 55.4401 227.148 54.6914C227.897 53.9427 228.516 53.2754 229.004 52.6895C229.655 52.071 230.306 51.7617 230.957 51.7617C231.543 51.7617 232.015 52.0221 232.373 52.543C232.764 53.0638 232.959 53.7311 232.959 54.5449C232.959 55.2936 232.764 56.0911 232.373 56.9375C232.015 57.7839 231.413 58.5814 230.566 59.3301C228.906 61.0228 227.214 62.6504 225.488 64.2129C223.763 65.7428 221.989 67.11 220.166 68.3145C218.376 69.4863 216.569 70.4303 214.746 71.1465C212.923 71.8626 211.084 72.2207 209.229 72.2207C206.592 72.2207 204.508 71.5534 202.979 70.2188C201.481 68.8516 200.732 66.7357 200.732 63.8711C200.732 62.3737 200.944 60.9089 201.367 59.4766C201.79 58.0443 202.295 56.6608 202.881 55.3262C203.467 53.959 204.085 52.6569 204.736 51.4199C205.387 50.1504 205.941 48.946 206.396 47.8066C206.559 47.3835 206.836 46.7324 207.227 45.8535C207.65 44.9746 208.089 44.0794 208.545 43.168C209.066 42.0938 209.619 40.9544 210.205 39.75ZM254.785 39.9941C254.785 41.0033 254.671 42.1263 254.443 43.3633C254.215 44.5677 253.841 45.707 253.32 46.7812C252.799 47.8555 252.132 48.7507 251.318 49.4668C250.505 50.1829 249.495 50.541 248.291 50.541C247.64 50.541 247.217 50.4434 247.021 50.248C246.859 50.0527 246.777 49.7109 246.777 49.2227C246.777 48.9297 246.777 48.5065 246.777 47.9531C246.81 47.3672 246.826 46.8138 246.826 46.293C246.826 45.707 246.745 45.2188 246.582 44.8281C246.419 44.4049 246.012 44.1934 245.361 44.1934C244.613 44.1934 243.766 44.4863 242.822 45.0723C241.911 45.6257 240.983 46.3581 240.039 47.2695C239.128 48.181 238.232 49.2227 237.354 50.3945C236.475 51.5339 235.677 52.7057 234.961 53.9102C234.277 55.082 233.724 56.2214 233.301 57.3281C232.91 58.4349 232.715 59.3789 232.715 60.1602C232.715 61.2995 233.105 62.1947 233.887 62.8457C234.701 63.4967 235.791 63.8223 237.158 63.8223C238.623 63.8223 240.186 63.5781 241.846 63.0898C243.506 62.6016 245.15 61.9831 246.777 61.2344C248.438 60.4857 250.033 59.6719 251.562 58.793C253.092 57.9141 254.476 57.084 255.713 56.3027C256.982 55.4889 258.04 54.8053 258.887 54.252C259.733 53.666 260.286 53.3079 260.547 53.1777C261.068 52.9173 261.556 52.7871 262.012 52.7871C262.402 52.7871 262.728 52.8848 262.988 53.0801C263.281 53.2428 263.509 53.4544 263.672 53.7148C263.835 53.9427 263.949 54.2031 264.014 54.4961C264.079 54.7565 264.111 54.9844 264.111 55.1797C264.111 55.4727 264.079 55.8307 264.014 56.2539C263.949 56.6445 263.704 57.1003 263.281 57.6211C263.118 57.8164 262.581 58.321 261.67 59.1348C260.791 59.916 259.635 60.8438 258.203 61.918C256.803 62.9922 255.176 64.1478 253.32 65.3848C251.497 66.5892 249.528 67.696 247.412 68.7051C245.329 69.7142 243.164 70.5443 240.918 71.1953C238.672 71.8789 236.458 72.2207 234.277 72.2207C232.617 72.2207 231.136 71.9603 229.834 71.4395C228.564 70.9186 227.49 70.2188 226.611 69.3398C225.732 68.4284 225.065 67.3704 224.609 66.166C224.154 64.9616 223.926 63.6921 223.926 62.3574C223.926 60.8926 224.268 59.2161 224.951 57.3281C225.635 55.4076 226.579 53.4544 227.783 51.4688C228.988 49.4831 230.404 47.5299 232.031 45.6094C233.659 43.6888 235.417 41.9798 237.305 40.4824C239.225 38.985 241.211 37.7806 243.262 36.8691C245.345 35.9577 247.445 35.502 249.561 35.502C250.277 35.502 250.944 35.5833 251.562 35.7461C252.214 35.9089 252.767 36.1693 253.223 36.5273C253.711 36.8529 254.085 37.3086 254.346 37.8945C254.639 38.4805 254.785 39.1803 254.785 39.9941ZM272.803 43.5098C274.788 44.5514 276.562 45.7396 278.125 47.0742C279.688 48.4089 281.006 49.8249 282.08 51.3223C283.187 52.7871 284.017 54.2845 284.57 55.8145C285.156 57.3444 285.449 58.8418 285.449 60.3066C285.449 62.1621 284.912 63.8385 283.838 65.3359C282.796 66.8008 281.413 68.054 279.688 69.0957C277.995 70.1048 276.042 70.8698 273.828 71.3906C271.647 71.944 269.434 72.2207 267.188 72.2207C265.495 72.2207 263.851 72.0254 262.256 71.6348C260.661 71.2767 259.196 70.707 257.861 69.9258C256.559 69.1445 255.436 68.1517 254.492 66.9473C253.548 65.7103 252.881 64.2454 252.49 62.5527C252.425 62.2923 252.393 62.0807 252.393 61.918C252.393 61.0391 252.702 60.2904 253.32 59.6719C253.939 59.0208 254.622 58.6953 255.371 58.6953C255.729 58.6953 256.12 58.7604 256.543 58.8906C256.999 59.0208 257.34 59.3138 257.568 59.7695C257.992 60.5508 258.577 61.2507 259.326 61.8691C260.107 62.4876 260.97 63.0247 261.914 63.4805C262.858 63.9036 263.851 64.2454 264.893 64.5059C265.967 64.7337 267.008 64.8477 268.018 64.8477C269.059 64.8477 270.052 64.75 270.996 64.5547C271.973 64.3594 272.819 64.0501 273.535 63.627C274.284 63.2038 274.87 62.6667 275.293 62.0156C275.716 61.3646 275.928 60.5671 275.928 59.623C275.928 57.9629 275.553 56.4329 274.805 55.0332C274.056 53.6335 273.079 52.3477 271.875 51.1758C270.703 49.9714 269.352 48.8646 267.822 47.8555C266.325 46.8138 264.827 45.821 263.33 44.877C263.167 44.7793 262.923 44.5026 262.598 44.0469C262.272 43.5586 262.109 43.0703 262.109 42.582C262.109 42.1914 262.207 41.8822 262.402 41.6543C262.923 40.9707 263.525 40.2708 264.209 39.5547C264.893 38.8385 265.625 38.1875 266.406 37.6016C267.188 36.9831 268.034 36.4948 268.945 36.1367C269.857 35.7461 270.801 35.5508 271.777 35.5508C272.493 35.5508 273.161 35.6484 273.779 35.8438C274.398 36.0391 274.919 36.2995 275.342 36.625C275.765 36.918 276.09 37.2598 276.318 37.6504C276.579 38.0085 276.709 38.3503 276.709 38.6758C276.709 39.1315 276.595 39.571 276.367 39.9941C276.139 40.4173 275.83 40.8242 275.439 41.2148C275.081 41.6055 274.658 41.9961 274.17 42.3867C273.714 42.7773 273.258 43.1517 272.803 43.5098Z" fill="white"/>
</svg>
